HIERARCHY
ROOT mixamorig:Hips
{
	OFFSET -0.000008 104.274872 1.554316
	CHANNELS 6 Xposition Yposition Zposition Xrotation Yrotation Zrotation
	JOINT mixamorig:Spine
	{
		OFFSET -0.000005 10.181595 0.131519
		CHANNELS 6 Xposition Yposition Zposition Xrotation Yrotation Zrotation
		JOINT mixamorig:Spine1
		{
			OFFSET -0.000000 9.893959 -1.470707
			CHANNELS 6 Xposition Yposition Zposition Xrotation Yrotation Zrotation
			JOINT mixamorig:Spine2
			{
				OFFSET -0.000000 9.220757 -1.370641
				CHANNELS 6 Xposition Yposition Zposition Xrotation Yrotation Zrotation
				JOINT mixamorig:Neck
				{
					OFFSET 0.000001 16.740417 -2.049036
					CHANNELS 6 Xposition Yposition Zposition Xrotation Yrotation Zrotation
					JOINT mixamorig:Head
					{
						OFFSET 0.000000 9.617874 1.685006
						CHANNELS 6 Xposition Yposition Zposition Xrotation Yrotation Zrotation
						JOINT mixamorig:HeadTop_End
						{
							OFFSET 0.000002 22.037354 7.501101
							CHANNELS 6 Xposition Yposition Zposition Xrotation Yrotation Zrotation
							End Site
							{
								OFFSET 0.000168 2310.654297 -282.823242
							}
						}
					}
				}
				JOINT mixamorig:RightShoulder
				{
					OFFSET -4.569970 11.014908 -2.160885
					CHANNELS 6 Xposition Yposition Zposition Xrotation Yrotation Zrotation
					JOINT mixamorig:RightArm
					{
						OFFSET -10.592851 -0.524811 -2.232101
						CHANNELS 6 Xposition Yposition Zposition Xrotation Yrotation Zrotation
						JOINT mixamorig:RightForeArm
						{
							OFFSET -27.841511 0.000031 -0.000004
							CHANNELS 6 Xposition Yposition Zposition Xrotation Yrotation Zrotation
							JOINT mixamorig:RightHand
							{
								OFFSET -28.328831 -0.000015 0.000015
								CHANNELS 6 Xposition Yposition Zposition Xrotation Yrotation Zrotation
								JOINT mixamorig:RightHandThumb1
								{
									OFFSET -2.464806 -1.573990 2.681852
									CHANNELS 6 Xposition Yposition Zposition Xrotation Yrotation Zrotation
									JOINT mixamorig:RightHandThumb2
									{
										OFFSET -3.215179 -1.872803 1.924282
										CHANNELS 6 Xposition Yposition Zposition Xrotation Yrotation Zrotation
										JOINT mixamorig:RightHandThumb3
										{
											OFFSET -2.654831 -1.527969 1.512609
											CHANNELS 6 Xposition Yposition Zposition Xrotation Yrotation Zrotation
											JOINT mixamorig:RightHandThumb4
											{
												OFFSET -2.018814 -1.152008 1.108052
												CHANNELS 6 Xposition Yposition Zposition Xrotation Yrotation Zrotation
												End Site
												{
													OFFSET -188.809540 -114.533607 132.431396
												}
											}
										}
									}
								}
								JOINT mixamorig:RightHandIndex1
								{
									OFFSET -9.108284 -0.517868 2.259835
									CHANNELS 6 Xposition Yposition Zposition Xrotation Yrotation Zrotation
									JOINT mixamorig:RightHandIndex2
									{
										OFFSET -3.699989 0.000000 0.001215
										CHANNELS 6 Xposition Yposition Zposition Xrotation Yrotation Zrotation
										JOINT mixamorig:RightHandIndex3
										{
											OFFSET -2.850006 0.000031 -0.000522
											CHANNELS 6 Xposition Yposition Zposition Xrotation Yrotation Zrotation
											JOINT mixamorig:RightHandIndex4
											{
												OFFSET -2.772186 -0.000015 -0.000020
												CHANNELS 6 Xposition Yposition Zposition Xrotation Yrotation Zrotation
												End Site
												{
													OFFSET -277.218445 0.000000 -0.050231
												}
											}
										}
									}
								}
								JOINT mixamorig:RightHandMiddle1
								{
									OFFSET -9.532516 -0.000031 -0.000023
									CHANNELS 6 Xposition Yposition Zposition Xrotation Yrotation Zrotation
									JOINT mixamorig:RightHandMiddle2
									{
										OFFSET -3.700005 -0.000015 0.003713
										CHANNELS 6 Xposition Yposition Zposition Xrotation Yrotation Zrotation
										JOINT mixamorig:RightHandMiddle3
										{
											OFFSET -2.949974 0.000015 -0.002054
											CHANNELS 6 Xposition Yposition Zposition Xrotation Yrotation Zrotation
											JOINT mixamorig:RightHandMiddle4
											{
												OFFSET -2.946640 0.000000 -0.000156
												CHANNELS 6 Xposition Yposition Zposition Xrotation Yrotation Zrotation
												End Site
												{
													OFFSET -294.664337 0.000000 -0.113670
												}
											}
										}
									}
								}
								JOINT mixamorig:RightHandRing1
								{
									OFFSET -9.103600 -0.043076 -1.865134
									CHANNELS 6 Xposition Yposition Zposition Xrotation Yrotation Zrotation
									JOINT mixamorig:RightHandRing2
									{
										OFFSET -3.379288 0.000000 -0.001055
										CHANNELS 6 Xposition Yposition Zposition Xrotation Yrotation Zrotation
										JOINT mixamorig:RightHandRing3
										{
											OFFSET -2.889687 -0.000015 0.000379
											CHANNELS 6 Xposition Yposition Zposition Xrotation Yrotation Zrotation
											JOINT mixamorig:RightHandRing4
											{
												OFFSET -2.638809 -0.000015 0.000941
												CHANNELS 6 Xposition Yposition Zposition Xrotation Yrotation Zrotation
												End Site
												{
													OFFSET -263.880371 0.000000 0.516020
												}
											}
										}
									}
								}
								JOINT mixamorig:RightHandPinky1
								{
									OFFSET -8.076683 -0.486710 -3.806280
									CHANNELS 6 Xposition Yposition Zposition Xrotation Yrotation Zrotation
									JOINT mixamorig:RightHandPinky2
									{
										OFFSET -3.600014 -0.000015 -0.003747
										CHANNELS 6 Xposition Yposition Zposition Xrotation Yrotation Zrotation
										JOINT mixamorig:RightHandPinky3
										{
											OFFSET -2.099983 0.000000 -0.005739
											CHANNELS 6 Xposition Yposition Zposition Xrotation Yrotation Zrotation
											JOINT mixamorig:RightHandPinky4
											{
												OFFSET -2.115768 -0.000031 -0.003680
												CHANNELS 6 Xposition Yposition Zposition Xrotation Yrotation Zrotation
												End Site
												{
													OFFSET -211.577087 0.000000 -0.350686
												}
											}
										}
									}
								}
							}
						}
					}
				}
				JOINT mixamorig:LeftShoulder
				{
					OFFSET 4.570447 11.014725 -2.160855
					CHANNELS 6 Xposition Yposition Zposition Xrotation Yrotation Zrotation
					JOINT mixamorig:LeftArm
					{
						OFFSET 10.592371 -0.524597 -2.232119
						CHANNELS 6 Xposition Yposition Zposition Xrotation Yrotation Zrotation
						JOINT mixamorig:LeftForeArm
						{
							OFFSET 27.841532 -0.000031 0.000026
							CHANNELS 6 Xposition Yposition Zposition Xrotation Yrotation Zrotation
							JOINT mixamorig:LeftHand
							{
								OFFSET 28.328846 -0.000061 0.000022
								CHANNELS 6 Xposition Yposition Zposition Xrotation Yrotation Zrotation
								JOINT mixamorig:LeftHandThumb1
								{
									OFFSET 2.466141 -1.576172 2.681732
									CHANNELS 6 Xposition Yposition Zposition Xrotation Yrotation Zrotation
									JOINT mixamorig:LeftHandThumb2
									{
										OFFSET 3.217812 -1.872070 1.916482
										CHANNELS 6 Xposition Yposition Zposition Xrotation Yrotation Zrotation
										JOINT mixamorig:LeftHandThumb3
										{
											OFFSET 2.656029 -1.528778 1.514513
											CHANNELS 6 Xposition Yposition Zposition Xrotation Yrotation Zrotation
											JOINT mixamorig:LeftHandThumb4
											{
												OFFSET 2.020889 -1.154053 1.115139
												CHANNELS 6 Xposition Yposition Zposition Xrotation Yrotation Zrotation
												End Site
												{
													OFFSET 190.885437 -115.081749 130.048782
												}
											}
										}
									}
								}
								JOINT mixamorig:LeftHandIndex1
								{
									OFFSET 9.109314 -0.518021 2.259871
									CHANNELS 6 Xposition Yposition Zposition Xrotation Yrotation Zrotation
									JOINT mixamorig:LeftHandIndex2
									{
										OFFSET 3.699989 0.000000 -0.000322
										CHANNELS 6 Xposition Yposition Zposition Xrotation Yrotation Zrotation
										JOINT mixamorig:LeftHandIndex3
										{
											OFFSET 2.850006 0.000000 0.000352
											CHANNELS 6 Xposition Yposition Zposition Xrotation Yrotation Zrotation
											JOINT mixamorig:LeftHandIndex4
											{
												OFFSET 2.774864 -0.000031 -0.000027
												CHANNELS 6 Xposition Yposition Zposition Xrotation Yrotation Zrotation
												End Site
												{
													OFFSET 277.486267 0.000000 -0.009857
												}
											}
										}
									}
								}
								JOINT mixamorig:LeftHandMiddle1
								{
									OFFSET 9.533394 0.000061 0.000044
									CHANNELS 6 Xposition Yposition Zposition Xrotation Yrotation Zrotation
									JOINT mixamorig:LeftHandMiddle2
									{
										OFFSET 3.699989 -0.000015 -0.000231
										CHANNELS 6 Xposition Yposition Zposition Xrotation Yrotation Zrotation
										JOINT mixamorig:LeftHandMiddle3
										{
											OFFSET 2.949997 -0.000015 -0.000059
											CHANNELS 6 Xposition Yposition Zposition Xrotation Yrotation Zrotation
											JOINT mixamorig:LeftHandMiddle4
											{
												OFFSET 2.952896 0.000031 0.000063
												CHANNELS 6 Xposition Yposition Zposition Xrotation Yrotation Zrotation
												End Site
												{
													OFFSET 295.289337 0.000000 0.022810
												}
											}
										}
									}
								}
								JOINT mixamorig:LeftHandRing1
								{
									OFFSET 9.104523 -0.042999 -1.865074
									CHANNELS 6 Xposition Yposition Zposition Xrotation Yrotation Zrotation
									JOINT mixamorig:LeftHandRing2
									{
										OFFSET 3.150009 -0.000031 0.000043
										CHANNELS 6 Xposition Yposition Zposition Xrotation Yrotation Zrotation
										JOINT mixamorig:LeftHandRing3
										{
											OFFSET 2.949982 -0.000015 0.000040
											CHANNELS 6 Xposition Yposition Zposition Xrotation Yrotation Zrotation
											JOINT mixamorig:LeftHandRing4
											{
												OFFSET 2.644348 0.000000 0.000057
												CHANNELS 6 Xposition Yposition Zposition Xrotation Yrotation Zrotation
												End Site
												{
													OFFSET 264.434631 0.000000 0.012105
												}
											}
										}
									}
								}
								JOINT mixamorig:LeftHandPinky1
								{
									OFFSET 8.077789 -0.486847 -3.806259
									CHANNELS 6 Xposition Yposition Zposition Xrotation Yrotation Zrotation
									JOINT mixamorig:LeftHandPinky2
									{
										OFFSET 3.599953 0.000031 0.014727
										CHANNELS 6 Xposition Yposition Zposition Xrotation Yrotation Zrotation
										JOINT mixamorig:LeftHandPinky3
										{
											OFFSET 2.100021 0.000015 0.007705
											CHANNELS 6 Xposition Yposition Zposition Xrotation Yrotation Zrotation
											JOINT mixamorig:LeftHandPinky4
											{
												OFFSET 2.125504 0.000031 0.007517
												CHANNELS 6 Xposition Yposition Zposition Xrotation Yrotation Zrotation
												End Site
												{
													OFFSET 212.550781 0.000000 0.625752
												}
											}
										}
									}
								}
							}
						}
					}
				}
			}
		}
	}
	JOINT mixamorig:RightUpLeg
	{
		OFFSET -8.207787 -6.751648 -1.599560
		CHANNELS 6 Xposition Yposition Zposition Xrotation Yrotation Zrotation
		JOINT mixamorig:RightLeg
		{
			OFFSET -0.000002 -44.370117 0.345942
			CHANNELS 6 Xposition Yposition Zposition Xrotation Yrotation Zrotation
			JOINT mixamorig:RightFoot
			{
				OFFSET 0.000003 -44.423679 -3.043532
				CHANNELS 6 Xposition Yposition Zposition Xrotation Yrotation Zrotation
				JOINT mixamorig:RightToeBase
				{
					OFFSET -0.000002 -8.728671 10.710558
					CHANNELS 6 Xposition Yposition Zposition Xrotation Yrotation Zrotation
					JOINT mixamorig:RightToe_End
					{
						OFFSET -0.000001 -0.000679 9.278119
						CHANNELS 6 Xposition Yposition Zposition Xrotation Yrotation Zrotation
						End Site
						{
							OFFSET 0.000000 -0.067690 927.812134
						}
					}
				}
			}
		}
	}
	JOINT mixamorig:LeftUpLeg
	{
		OFFSET 8.207793 -6.751686 -1.599556
		CHANNELS 6 Xposition Yposition Zposition Xrotation Yrotation Zrotation
		JOINT mixamorig:LeftLeg
		{
			OFFSET -0.000004 -44.370014 0.346954
			CHANNELS 6 Xposition Yposition Zposition Xrotation Yrotation Zrotation
			JOINT mixamorig:LeftFoot
			{
				OFFSET -0.000001 -44.423672 -3.044401
				CHANNELS 6 Xposition Yposition Zposition Xrotation Yrotation Zrotation
				JOINT mixamorig:LeftToeBase
				{
					OFFSET -0.000002 -8.728669 10.710558
					CHANNELS 6 Xposition Yposition Zposition Xrotation Yrotation Zrotation
					JOINT mixamorig:LeftToe_End
					{
						OFFSET -0.000003 -0.000679 9.278133
						CHANNELS 6 Xposition Yposition Zposition Xrotation Yrotation Zrotation
						End Site
						{
							OFFSET 0.000000 -0.068021 927.813477
						}
					}
				}
			}
		}
	}
}
MOTION
Frames: 3
Frame Time: 0.033333
0.000006 104.270477 1.554256 0.000010 0.000003 -0.000113 -0.000005 10.181587 0.131522 0.000001 -0.000003 0.000084 -0.000000 9.893967 -1.470711 0.000001 0.000000 -0.000000 -0.000000 9.220802 -1.370642 0.000000 -0.000000 -0.000000 0.000001 16.740433 -2.049030 0.000000 -0.000000 -0.000000 0.000000 9.617859 1.685014 0.000000 0.000000 0.000000 0.000002 22.037384 7.501101 0.000000 -0.000000 0.000000 -4.569968 11.014880 -2.160881 0.000008 0.000001 -0.000038 -10.592880 -0.524712 -2.231975 72.737792 17.130241 -12.658246 -27.841526 0.000003 0.000540 -55.663702 114.448426 78.702098 -28.328831 0.000005 0.000022 -0.000317 -0.000045 0.000008 -2.464444 -1.573873 2.682385 -35.654226 -158.397319 17.887869 -3.215289 -1.872560 1.924637 156.579696 33.310874 11.936994 -2.654932 -1.527882 1.513083 151.398028 25.992729 -37.488180 -2.018820 -1.152011 1.108062 -0.000001 0.000000 0.000005 -9.108399 -0.517555 2.260142 102.312327 19.278774 -23.878787 -3.700084 0.000299 0.001525 100.479972 15.761001 -18.862206 -2.850101 0.000344 -0.000237 100.129836 11.816623 -14.092587 -2.772181 -0.000016 -0.000021 -0.000001 -0.000000 0.000001 -9.532596 0.000272 0.000270 97.522165 18.019656 -20.669481 -3.700067 0.000309 0.003988 96.621714 12.710260 -14.149123 -2.950083 0.000348 -0.001806 98.188102 11.294750 -13.014163 -2.946617 0.000001 -0.000153 -0.000002 0.000000 -0.000000 -9.103707 -0.042758 -1.864858 97.182650 17.938580 -20.243306 -3.379332 0.000319 -0.000788 96.692290 9.457596 -10.645284 -2.889757 0.000352 0.000679 100.893396 6.491250 -7.910511 -2.638821 -0.000005 0.000940 -0.000004 0.000001 -0.000002 -8.076754 -0.486391 -3.805992 92.302220 17.805542 -18.365889 -3.600048 0.000292 -0.003478 97.358261 8.631106 -9.407531 -2.100012 0.000313 -0.005457 99.047838 5.086838 -5.704485 -2.115756 -0.000041 -0.003680 0.000001 -0.000000 -0.000005 4.570446 11.014691 -2.160851 -0.000018 0.000010 -0.000021 10.592366 -0.524520 -2.232291 69.045283 2.739458 -1.884485 27.841846 0.000085 -0.000187 109.149797 -67.068448 85.950670 28.328854 -0.000029 0.000028 0.000017 -0.000089 0.000000 2.465901 -1.576106 2.681894 -50.080955 169.839101 16.682478 3.217818 -1.871765 1.916371 154.669101 -29.672630 8.039847 2.656103 -1.528628 1.514445 141.628071 -27.718361 39.785107 2.020883 -1.154056 1.115151 0.000005 -0.000001 0.000002 9.109379 -0.517857 2.259751 83.656102 -15.010843 13.438734 3.700051 0.000146 -0.000464 80.485959 -16.958463 14.397567 2.850060 0.000161 0.000221 78.370977 -14.357691 11.723251 2.774889 -0.000016 -0.000023 0.000000 0.000001 -0.000001 9.533455 0.000219 -0.000079 85.473103 -13.148257 12.148225 3.700046 0.000171 -0.000369 86.849496 -14.772132 13.986842 2.950070 0.000147 -0.000194 84.662681 -18.635135 17.003568 2.952866 -0.000031 0.000062 -0.000001 -0.000001 -0.000000 9.104593 -0.042840 -1.865219 85.874397 -13.226680 12.316092 3.150068 0.000196 -0.000103 90.148962 -14.386981 14.425899 2.950039 0.000165 -0.000065 89.659238 -16.562017 16.466999 2.644317 0.000031 0.000058 0.000001 -0.000001 -0.000003 8.077845 -0.486737 -3.806415 73.595411 -16.678449 12.961951 3.600009 0.000175 0.014570 73.997586 -13.365441 10.479636 2.100050 0.000162 0.007552 75.058779 -12.775088 10.207121 2.125502 0.000000 0.007515 0.000001 0.000000 0.000000 -8.207786 -6.751667 -1.599560 -0.077001 -0.000003 0.000080 -0.000002 -44.370110 0.345938 0.153719 -0.000000 -0.000000 0.000000 -44.423679 -3.043532 -0.076700 0.000000 -0.000002 -0.000006 -8.728667 10.710559 -0.000009 -0.000000 -0.000000 -0.000001 -0.000679 9.278123 0.000000 -0.000000 -0.000000 8.207792 -6.751710 -1.599556 -0.074518 -0.000003 0.000081 -0.000002 -44.370014 0.346960 0.148822 0.000002 0.000000 -0.000001 -44.423664 -3.044403 -0.074314 0.000000 -0.000002 -0.000004 -8.728671 10.710558 0.000007 -0.000000 -0.000000 0.000000 -0.000680 9.278137 -0.000000 0.000000 -0.000001 
0.000006 104.270477 1.554256 0.000010 0.000003 -0.000113 -0.000005 10.181587 0.131522 0.000001 -0.000003 0.000084 -0.000000 9.893967 -1.470711 0.000001 0.000000 -0.000000 -0.000000 9.220802 -1.370642 0.000000 -0.000000 -0.000000 0.000001 16.740433 -2.049030 0.000000 -0.000000 -0.000000 0.000000 9.617859 1.685014 0.000000 0.000000 0.000000 0.000002 22.037384 7.501101 0.000000 -0.000000 0.000000 -4.569968 11.014880 -2.160881 0.000008 0.000001 -0.000038 -10.592876 -0.524692 -2.231998 71.329230 12.217058 -8.783547 -27.841516 0.000014 0.000528 -55.179630 115.802429 79.593465 -28.328844 0.000021 0.000023 -0.000321 -0.000046 0.000007 -2.464407 -1.573822 2.682341 -43.789736 -160.248833 -0.220917 -3.215284 -1.872601 1.924644 156.284769 32.201624 5.979473 -2.654942 -1.527880 1.513076 148.762080 26.626145 -36.635898 -2.018838 -1.151994 1.108072 -0.000001 -0.000006 0.000004 -9.108378 -0.517555 2.260133 101.534915 17.032800 -20.841337 -3.700081 0.000319 0.001536 100.176943 13.804864 -16.441426 -2.850077 0.000366 -0.000254 98.839101 10.633574 -12.401015 -2.772184 -0.000002 -0.000031 -0.000002 -0.000001 -0.000001 -9.532590 0.000252 0.000252 95.400756 17.133174 -18.957936 -3.700077 0.000333 0.003978 96.217483 11.413250 -12.609433 -2.950070 0.000349 -0.001782 99.885970 10.359915 -12.299366 -2.946641 0.000003 -0.000159 -0.000000 -0.000000 -0.000003 -9.103690 -0.042772 -1.864859 95.621091 16.415028 -18.034452 -3.379293 0.000338 -0.000821 96.708075 6.780053 -7.640661 -2.889742 0.000367 0.000669 104.362757 4.709239 -6.121703 -2.638804 0.000000 0.000945 -0.000004 0.000001 0.000001 -8.076738 -0.486396 -3.805992 90.920575 16.597804 -16.710606 -3.600036 0.000306 -0.003484 97.171476 5.319861 -5.644523 -2.099984 0.000340 -0.005439 101.722936 2.084957 -2.306418 -2.115780 -0.000042 -0.003674 0.000002 0.000001 -0.000005 4.570446 11.014691 -2.160851 -0.000018 0.000010 -0.000021 10.592357 -0.524534 -2.232273 69.948193 11.229797 -7.868417 27.841854 0.000099 -0.000219 108.528421 -65.837874 83.959574 28.328833 -0.000028 0.000025 0.000021 -0.000089 -0.000000 2.466113 -1.576169 2.681911 -24.822492 160.074909 -41.512401 3.217857 -1.871767 1.916395 163.115613 -26.393360 23.346164 2.656098 -1.528657 1.514486 140.305049 -27.289182 55.718849 2.020891 -1.154083 1.115137 0.000003 0.000001 0.000002 9.109390 -0.517864 2.259745 84.078912 -18.147804 16.377089 3.700043 0.000149 -0.000465 81.378535 -12.798243 11.030557 2.850030 0.000171 0.000189 80.098632 -9.869047 8.300558 2.774895 -0.000034 -0.000022 0.000001 -0.000002 -0.000003 9.533463 0.000204 -0.000071 84.359926 -17.166553 15.567379 3.700045 0.000179 -0.000375 86.228304 -11.069263 10.365069 2.950058 0.000190 -0.000214 87.107622 -10.947813 10.414421 2.952860 -0.000016 0.000064 0.000000 -0.000000 -0.000001 9.104590 -0.042856 -1.865214 84.583833 -16.747375 15.255082 3.150040 0.000205 -0.000105 88.900028 -11.446613 11.232115 2.950014 0.000189 -0.000082 90.681047 -9.983156 10.103655 2.644331 0.000015 0.000056 -0.000001 0.000002 0.000001 8.077834 -0.486727 -3.806403 76.930688 -18.838597 15.498971 3.600006 0.000157 0.014572 76.682739 -15.552455 12.746109 2.100037 0.000161 0.007549 78.766732 -11.122119 9.533570 2.125501 -0.000015 0.007513 0.000001 0.000003 -0.000002 -8.207786 -6.751667 -1.599560 -0.077001 -0.000003 0.000080 -0.000002 -44.370110 0.345938 0.153719 -0.000000 -0.000000 0.000000 -44.423679 -3.043532 -0.076700 0.000000 -0.000002 -0.000006 -8.728667 10.710559 -0.000009 -0.000000 -0.000000 -0.000001 -0.000679 9.278123 0.000000 -0.000000 -0.000000 8.207792 -6.751710 -1.599556 -0.074518 -0.000003 0.000081 -0.000002 -44.370014 0.346960 0.148822 0.000002 0.000000 -0.000001 -44.423664 -3.044403 -0.074314 0.000000 -0.000002 -0.000004 -8.728671 10.710558 0.000007 -0.000000 -0.000000 0.000000 -0.000680 9.278137 -0.000000 0.000000 -0.000001 
0.000006 104.270477 1.554256 0.000010 0.000003 -0.000113 -0.000005 10.181587 0.131522 0.000001 -0.000003 0.000084 -0.000000 9.893967 -1.470711 0.000001 0.000000 -0.000000 -0.000000 9.220802 -1.370642 0.000000 -0.000000 -0.000000 0.000001 16.740433 -2.049030 0.000000 -0.000000 -0.000000 0.000000 9.617859 1.685014 0.000000 0.000000 0.000000 0.000002 22.037384 7.501101 0.000000 -0.000000 0.000000 -4.569968 11.014880 -2.160881 0.000008 0.000001 -0.000038 -10.592875 -0.524705 -2.231997 69.574909 12.655282 -8.810068 -27.841518 0.000020 0.000548 -52.152548 112.274479 72.206499 -28.328821 0.000022 0.000020 -0.000315 -0.000043 0.000007 -2.464432 -1.573743 2.682329 -49.108220 -167.533790 -13.096970 -3.215274 -1.872647 1.924689 156.461752 28.766544 -13.541202 -2.654947 -1.527881 1.513085 144.644105 27.260549 -38.840113 -2.018823 -1.151995 1.108071 -0.000002 -0.000002 0.000004 -9.108383 -0.517565 2.260155 101.564216 17.257750 -21.124701 -3.700057 0.000309 0.001535 97.975000 13.362037 -15.315176 -2.850077 0.000376 -0.000268 96.299308 9.855277 -10.995369 -2.772171 0.000002 -0.000020 0.000003 -0.000000 0.000000 -9.532582 0.000274 0.000250 94.515570 16.204183 -17.668397 -3.700063 0.000337 0.003974 94.917875 11.325652 -12.232380 -2.950058 0.000353 -0.001802 97.527083 10.450072 -11.903789 -2.946632 0.000014 -0.000157 -0.000005 0.000001 -0.000000 -9.103694 -0.042744 -1.864869 93.081558 16.046836 -16.874910 -3.379321 0.000329 -0.000812 94.664216 8.371607 -9.098082 -2.889736 0.000351 0.000656 101.106737 6.098373 -7.463364 -2.638805 0.000011 0.000944 -0.000002 0.000000 0.000001 -8.076737 -0.486375 -3.806025 88.234597 16.615105 -15.972059 -3.600024 0.000291 -0.003502 92.647930 7.466706 -7.452088 -2.100007 0.000321 -0.005467 97.267542 4.053350 -4.359160 -2.115785 -0.000054 -0.003680 0.000003 -0.000000 -0.000005 4.570446 11.014691 -2.160851 -0.000018 0.000010 -0.000021 10.592356 -0.524540 -2.232275 70.058357 12.797848 -8.989800 27.841848 0.000100 -0.000212 108.420627 -65.112139 83.054076 28.328838 -0.000028 0.000024 0.000019 -0.000089 0.000000 2.466166 -1.576142 2.681879 -13.444164 159.824268 -62.122715 3.217857 -1.871796 1.916394 162.820672 -25.290567 28.052277 2.656116 -1.528665 1.514468 140.193253 -27.370921 54.806988 2.020899 -1.154087 1.115157 -0.000002 0.000005 0.000002 9.109361 -0.517857 2.259748 85.432327 -19.028892 17.581252 3.700042 0.000161 -0.000466 82.765896 -12.677054 11.194717 2.850036 0.000178 0.000209 81.661612 -9.638584 8.332728 2.774897 -0.000025 -0.000030 -0.000003 0.000001 -0.000001 9.533458 0.000205 -0.000077 84.598935 -17.735732 16.151869 3.700050 0.000182 -0.000398 86.369962 -10.966983 10.294540 2.950064 0.000186 -0.000216 87.386854 -10.660990 10.190839 2.952884 -0.000014 0.000071 0.000001 -0.000002 -0.000001 9.104585 -0.042856 -1.865218 84.778576 -17.242681 15.760402 3.150052 0.000188 -0.000092 88.948761 -11.806585 11.595185 2.950014 0.000200 -0.000082 90.544505 -9.970926 10.067383 2.644330 0.000031 0.000052 0.000000 -0.000001 -0.000002 8.077835 -0.486726 -3.806419 78.220604 -18.982510 15.974055 3.600010 0.000179 0.014579 78.065442 -16.099996 13.511385 2.100047 0.000178 0.007545 80.044175 -11.542805 10.107355 2.125513 -0.000023 0.007510 -0.000001 -0.000003 -0.000003 -8.207786 -6.751667 -1.599560 -0.077001 -0.000003 0.000080 -0.000002 -44.370110 0.345938 0.153719 -0.000000 -0.000000 0.000000 -44.423679 -3.043532 -0.076700 0.000000 -0.000002 -0.000006 -8.728667 10.710559 -0.000009 -0.000000 -0.000000 -0.000001 -0.000679 9.278123 0.000000 -0.000000 -0.000000 8.207792 -6.751710 -1.599556 -0.074518 -0.000003 0.000081 -0.000002 -44.370014 0.346960 0.148822 0.000002 0.000000 -0.000001 -44.423664 -3.044403 -0.074314 0.000000 -0.000002 -0.000004 -8.728671 10.710558 0.000007 -0.000000 -0.000000 0.000000 -0.000680 9.278137 -0.000000 0.000000 -0.000001 
